name Walk7.mot
datacolumns 19
datarows 22
range 3.09700000 3.11800000
endheader

                time	   L_ground_force_vx	   L_ground_force_vy	   L_ground_force_vz	   L_ground_force_px	   L_ground_force_py	   L_ground_force_pz	   R_ground_force_vx	   R_ground_force_vy	   R_ground_force_vz	   R_ground_force_px	   R_ground_force_py	   R_ground_force_pz	   L_ground_torque_x	   L_ground_torque_y	   L_ground_torque_z	   R_ground_torque_x	   R_ground_torque_y	   R_ground_torque_z	
          3.09700000	        -25.69726008	        881.15079694	        -62.52218109	          0.23881870	          0.00000000	          0.10542210	          0.00000000	          0.00000000	          0.00000000	          0.00000000	          0.00000000	          0.00000000	          0.00000000	          8.38232819	          0.00000000	          0.00000000	          0.00000000	          0.00000000	
          3.09800000	        -25.46245930	        880.42489425	        -62.48133794	          0.23922401	          0.00000000	          0.10554902	          0.00000000	          0.00000000	          0.00000000	          0.00000000	          0.00000000	          0.00000000	          0.00000000	          8.31516188	          0.00000000	          0.00000000	          0.00000000	          0.00000000	
          3.09900000	        -25.19954296	        879.77986839	        -62.39549229	          0.23962771	          0.00000000	          0.10570398	          0.00000000	          0.00000000	          0.00000000	          0.00000000	          0.00000000	          0.00000000	          0.00000000	          8.25474302	          0.00000000	          0.00000000	          0.00000000	          0.00000000	
          3.10000000	        -24.93050156	        879.16372438	        -62.29300209	          0.24002464	          0.00000000	          0.10586920	          0.00000000	          0.00000000	          0.00000000	          0.00000000	          0.00000000	          0.00000000	          0.00000000	          8.20761294	          0.00000000	          0.00000000	          0.00000000	          0.00000000	
          3.10100000	        -24.67878928	        878.52860451	        -62.20285194	          0.24041372	          0.00000000	          0.10602178	          0.00000000	          0.00000000	          0.00000000	          0.00000000	          0.00000000	          0.00000000	          0.00000000	          8.17433501	          0.00000000	          0.00000000	          0.00000000	          0.00000000	
          3.10200000	        -24.45071812	        877.84694259	        -62.13772241	          0.24080013	          0.00000000	          0.10614493	          0.00000000	          0.00000000	          0.00000000	          0.00000000	          0.00000000	          0.00000000	          0.00000000	          8.15008788	          0.00000000	          0.00000000	          0.00000000	          0.00000000	
          3.10300000	        -24.23496062	        877.11871508	        -62.09643084	          0.24119345	          0.00000000	          0.10623390	          0.00000000	          0.00000000	          0.00000000	          0.00000000	          0.00000000	          0.00000000	          0.00000000	          8.12787556	          0.00000000	          0.00000000	          0.00000000	          0.00000000	
          3.10400000	        -24.01132191	        876.36181686	        -62.07460788	          0.24159233	          0.00000000	          0.10629291	          0.00000000	          0.00000000	          0.00000000	          0.00000000	          0.00000000	          0.00000000	          0.00000000	          8.10403959	          0.00000000	          0.00000000	          0.00000000	          0.00000000	
          3.10500000	        -23.76132130	        875.60994193	        -62.06459530	          0.24198955	          0.00000000	          0.10633735	          0.00000000	          0.00000000	          0.00000000	          0.00000000	          0.00000000	          0.00000000	          0.00000000	          8.07913800	          0.00000000	          0.00000000	          0.00000000	          0.00000000	
          3.10600000	        -23.47864148	        874.90105068	        -62.05265731	          0.24239007	          0.00000000	          0.10638927	          0.00000000	          0.00000000	          0.00000000	          0.00000000	          0.00000000	          0.00000000	          0.00000000	          8.05518629	          0.00000000	          0.00000000	          0.00000000	          0.00000000	
          3.10700000	        -23.17127127	        874.24801596	        -62.02744245	          0.24280053	          0.00000000	          0.10645809	          0.00000000	          0.00000000	          0.00000000	          0.00000000	          0.00000000	          0.00000000	          0.00000000	          8.03484509	          0.00000000	          0.00000000	          0.00000000	          0.00000000	
          3.10800000	        -22.85718099	        873.63876190	        -61.98903170	          0.24320594	          0.00000000	          0.10653173	          0.00000000	          0.00000000	          0.00000000	          0.00000000	          0.00000000	          0.00000000	          0.00000000	          8.01953564	          0.00000000	          0.00000000	          0.00000000	          0.00000000	
          3.10900000	        -22.55981589	        873.06273828	        -61.94286627	          0.24357123	          0.00000000	          0.10659245	          0.00000000	          0.00000000	          0.00000000	          0.00000000	          0.00000000	          0.00000000	          0.00000000	          8.00651662	          0.00000000	          0.00000000	          0.00000000	          0.00000000	
          3.11000000	        -22.29789327	        872.51559439	        -61.89187352	          0.24386637	          0.00000000	          0.10663531	          0.00000000	          0.00000000	          0.00000000	          0.00000000	          0.00000000	          0.00000000	          0.00000000	          7.99145920	          0.00000000	          0.00000000	          0.00000000	          0.00000000	
          3.11100000	        -22.07220961	        872.00093388	        -61.83795201	          0.24409840	          0.00000000	          0.10667193	          0.00000000	          0.00000000	          0.00000000	          0.00000000	          0.00000000	          0.00000000	          0.00000000	          7.97308320	          0.00000000	          0.00000000	          0.00000000	          0.00000000	
          3.11200000	        -21.86651615	        871.54719148	        -61.77891411	          0.24431619	          0.00000000	          0.10672448	          0.00000000	          0.00000000	          0.00000000	          0.00000000	          0.00000000	          0.00000000	          0.00000000	          7.95114158	          0.00000000	          0.00000000	          0.00000000	          0.00000000	
          3.11300000	        -21.66178834	        871.19131624	        -61.70356311	          0.24456496	          0.00000000	          0.10681077	          0.00000000	          0.00000000	          0.00000000	          0.00000000	          0.00000000	          0.00000000	          0.00000000	          7.92207107	          0.00000000	          0.00000000	          0.00000000	          0.00000000	
          3.11400000	        -21.44447226	        870.94311636	        -61.60172163	          0.24485140	          0.00000000	          0.10692803	          0.00000000	          0.00000000	          0.00000000	          0.00000000	          0.00000000	          0.00000000	          0.00000000	          7.88282345	          0.00000000	          0.00000000	          0.00000000	          0.00000000	
          3.11500000	        -21.20493725	        870.79138477	        -61.48070365	          0.24516917	          0.00000000	          0.10705148	          0.00000000	          0.00000000	          0.00000000	          0.00000000	          0.00000000	          0.00000000	          0.00000000	          7.83861284	          0.00000000	          0.00000000	          0.00000000	          0.00000000	
          3.11600000	        -20.93734573	        870.72600526	        -61.36389163	          0.24552412	          0.00000000	          0.10714831	          0.00000000	          0.00000000	          0.00000000	          0.00000000	          0.00000000	          0.00000000	          0.00000000	          7.80153930	          0.00000000	          0.00000000	          0.00000000	          0.00000000	
          3.11700000	        -20.64356427	        870.73684808	        -61.26934040	          0.24591603	          0.00000000	          0.10720018	          0.00000000	          0.00000000	          0.00000000	          0.00000000	          0.00000000	          0.00000000	          0.00000000	          7.78021584	          0.00000000	          0.00000000	          0.00000000	          0.00000000	
          3.11800000	        -20.33448760	        870.80092033	        -61.19359379	          0.24632188	          0.00000000	          0.10721785	          0.00000000	          0.00000000	          0.00000000	          0.00000000	          0.00000000	          0.00000000	          0.00000000	          7.77271835	          0.00000000	          0.00000000	          0.00000000	          0.00000000	
